<?xml version="1.0" standalone="no"?>
<!DOCTYPE svg PUBLIC "-//W3C//DTD SVG 20010904//EN"
 "http://www.w3.org/TR/2001/REC-SVG-20010904/DTD/svg10.dtd">
<svg version="1.0" xmlns="http://www.w3.org/2000/svg"
 width="580.000000pt" height="386.000000pt" viewBox="0 0 580.000000 386.000000"
 preserveAspectRatio="xMidYMid meet">

<g transform="translate(0.000000,386.000000) scale(0.100000,-0.100000)"
fill="#000000" stroke="none">
<path d="M2755 2956 c-73 -17 -175 -55 -175 -65 0 -4 -6 -8 -12 -8 -25 -1
-264 -52 -318 -68 -122 -36 -286 -100 -360 -139 -31 -17 -75 -97 -59 -107 8
-5 8 -8 0 -10 -9 -3 -8 -23 4 -74 9 -39 19 -77 22 -85 3 -8 6 -18 5 -22 -4
-18 38 -172 49 -178 7 -5 7 -9 1 -11 -13 -5 64 -350 81 -361 8 -5 8 -8 1 -8
-8 0 -5 -25 7 -77 11 -43 29 -123 40 -178 12 -55 25 -102 30 -103 5 -2 6 -8 3
-13 -5 -8 58 -308 73 -349 3 -8 7 -31 10 -50 6 -57 44 -122 83 -142 33 -17 74
-18 661 -18 586 1 628 2 660 19 36 19 68 65 73 103 2 13 8 41 13 63 33 123 64
275 59 284 -3 5 -2 11 3 13 4 1 23 71 40 153 18 83 38 175 46 205 8 31 19 76
24 100 5 25 22 106 39 180 17 74 33 146 36 160 2 14 12 56 21 94 9 38 14 75
11 82 -3 8 -2 14 3 14 8 0 33 96 36 136 1 11 5 26 9 33 11 17 0 70 -23 107
-20 32 -101 78 -186 103 -22 7 -54 19 -71 27 -18 7 -42 15 -55 16 -13 2 -27 7
-30 11 -8 11 -179 55 -242 62 -68 8 -128 24 -147 40 -8 7 -51 25 -95 40 -98
33 -272 43 -370 21z m325 -72 c89 -26 189 -84 265 -154 39 -36 76 -72 81 -81
5 -10 25 -46 46 -80 73 -128 109 -308 75 -378 -25 -52 -23 -52 -646 -51 -319
0 -591 4 -604 9 -43 17 -52 38 -51 127 2 147 59 288 161 405 109 124 230 191
403 223 48 9 215 -3 270 -20z m-670 -100 c0 -3 -25 -33 -55 -67 -31 -34 -58
-71 -61 -84 -4 -13 -9 -23 -13 -23 -18 0 -73 -148 -89 -240 -25 -143 -10 -219
49 -261 l34 -24 628 0 c407 0 630 4 635 10 4 6 16 15 27 21 42 22 57 71 52
170 -9 165 -74 327 -176 436 -29 32 -52 61 -49 63 7 7 184 -42 293 -81 152
-56 213 -89 221 -121 8 -28 -11 -131 -66 -373 -17 -74 -33 -146 -36 -160 -2
-14 -13 -61 -23 -105 -66 -279 -160 -718 -155 -726 3 -5 1 -9 -4 -9 -5 0 -16
-37 -26 -82 -9 -46 -22 -98 -27 -116 -20 -63 -5 -62 -668 -62 -373 0 -610 4
-626 10 -33 13 -48 50 -75 181 -12 57 -25 105 -30 107 -5 2 -7 9 -4 16 4 12
-59 312 -73 346 -3 8 -6 18 -5 22 1 4 -16 85 -39 180 -22 95 -42 187 -45 203
-3 17 -14 66 -24 110 -10 44 -28 125 -41 180 -12 55 -30 133 -39 173 -24 98
-15 124 54 159 90 46 292 117 406 143 48 11 50 11 50 4z"/>
<path d="M2839 2836 c-3 -3 -26 -9 -50 -12 -57 -8 -146 -44 -201 -82 -55 -38
-160 -150 -153 -163 4 -5 1 -9 -5 -9 -31 0 -93 -207 -88 -294 l3 -51 552 -3
c633 -3 568 -14 559 103 -6 79 -43 188 -85 253 -40 62 -110 134 -124 125 -5
-3 -7 -1 -4 4 10 16 -81 71 -162 99 -66 23 -229 43 -242 30z m264 -108 c42
-20 77 -41 77 -46 0 -4 -12 -18 -26 -31 -14 -12 -24 -30 -22 -39 5 -27 42 -26
75 2 l30 25 30 -32 c17 -18 42 -49 56 -69 13 -20 28 -34 31 -30 4 3 4 -1 0
-11 -4 -12 -17 -17 -44 -17 -48 0 -75 -23 -60 -51 9 -15 22 -19 70 -19 65 0
64 1 76 -82 l6 -47 -248 -3 c-137 -2 -363 -2 -502 0 l-253 3 5 27 c2 15 7 44
11 65 l6 37 59 0 c48 0 61 4 70 19 14 27 -10 49 -55 49 -20 0 -39 2 -42 5 -3
3 5 22 17 41 12 20 19 36 16 36 -3 0 14 18 37 39 l41 39 30 -24 c32 -28 69
-28 74 -2 2 9 -8 27 -22 39 -14 13 -26 26 -26 31 0 10 91 57 145 74 26 9 79
13 150 11 104 -2 114 -4 188 -39z"/>
<path d="M2884 2682 c-14 -8 -66 -191 -58 -203 3 -5 1 -9 -4 -9 -11 0 -32 -89
-25 -107 7 -19 199 -19 206 0 7 18 -72 310 -86 319 -15 10 -19 10 -33 0z m32
-197 c3 -19 10 -35 14 -35 5 0 6 -9 3 -20 -7 -26 -63 -29 -63 -4 0 27 22 94
31 94 5 0 11 -16 15 -35z"/>
</g>
</svg>
